<svg width="38" height="16" viewBox="0 0 38 16" fill="none" xmlns="http://www.w3.org/2000/svg">
<path d="M32.5488 9.69727H28.8477V7.75391H32.5488C33.1934 7.75391 33.7142 7.64974 34.1113 7.44141C34.5085 7.23307 34.7982 6.94661 34.9805 6.58203C35.1693 6.21094 35.2637 5.78776 35.2637 5.3125C35.2637 4.86328 35.1693 4.44336 34.9805 4.05273C34.7982 3.6556 34.5085 3.33659 34.1113 3.0957C33.7142 2.85482 33.1934 2.73438 32.5488 2.73438H29.5996V15H27.1484V0.78125H32.5488C33.6491 0.78125 34.5833 0.976562 35.3516 1.36719C36.1263 1.7513 36.7155 2.28516 37.1191 2.96875C37.5228 3.64583 37.7246 4.42057 37.7246 5.29297C37.7246 6.21094 37.5228 6.9987 37.1191 7.65625C36.7155 8.3138 36.1263 8.81836 35.3516 9.16992C34.5833 9.52148 33.6491 9.69727 32.5488 9.69727Z" fill="white"/>
<path d="M24.6973 7.5V8.28125C24.6973 9.35547 24.5573 10.319 24.2773 11.1719C23.9974 12.0247 23.597 12.7507 23.0762 13.3496C22.5618 13.9486 21.9434 14.4076 21.2207 14.7266C20.498 15.0391 19.6973 15.1953 18.8184 15.1953C17.946 15.1953 17.1484 15.0391 16.4258 14.7266C15.7096 14.4076 15.0879 13.9486 14.5605 13.3496C14.0332 12.7507 13.623 12.0247 13.3301 11.1719C13.0436 10.319 12.9004 9.35547 12.9004 8.28125V7.5C12.9004 6.42578 13.0436 5.46549 13.3301 4.61914C13.6165 3.76628 14.0202 3.04036 14.541 2.44141C15.0684 1.83594 15.6901 1.37695 16.4062 1.06445C17.1289 0.745443 17.9264 0.585938 18.7988 0.585938C19.6777 0.585938 20.4785 0.745443 21.2012 1.06445C21.9238 1.37695 22.5456 1.83594 23.0664 2.44141C23.5872 3.04036 23.9876 3.76628 24.2676 4.61914C24.554 5.46549 24.6973 6.42578 24.6973 7.5ZM22.2461 8.28125V7.48047C22.2461 6.6862 22.168 5.98633 22.0117 5.38086C21.862 4.76888 21.6374 4.25781 21.3379 3.84766C21.0449 3.43099 20.6836 3.11849 20.2539 2.91016C19.8242 2.69531 19.3392 2.58789 18.7988 2.58789C18.2585 2.58789 17.7767 2.69531 17.3535 2.91016C16.9303 3.11849 16.569 3.43099 16.2695 3.84766C15.9766 4.25781 15.752 4.76888 15.5957 5.38086C15.4395 5.98633 15.3613 6.6862 15.3613 7.48047V8.28125C15.3613 9.07552 15.4395 9.77865 15.5957 10.3906C15.752 11.0026 15.9798 11.5202 16.2793 11.9434C16.5853 12.36 16.9499 12.6758 17.373 12.8906C17.7962 13.099 18.278 13.2031 18.8184 13.2031C19.3652 13.2031 19.8503 13.099 20.2734 12.8906C20.6966 12.6758 21.0547 12.36 21.3477 11.9434C21.6406 11.5202 21.862 11.0026 22.0117 10.3906C22.168 9.77865 22.2461 9.07552 22.2461 8.28125Z" fill="white"/>
<path d="M7.29492 0.78125V15H4.86328V0.78125H7.29492ZM11.7578 0.78125V2.73438H0.439453V0.78125H11.7578Z" fill="white"/>
</svg>
