<svg width="832" height="364" viewBox="0 0 832 364" fill="none" xmlns="http://www.w3.org/2000/svg">
<path d="M366.56 96C365.76 96 365.04 95.72 364.4 95.16C363.76 94.52 363.44 93.76 363.44 92.88V15.12C363.44 14.24 363.76 13.52 364.4 12.96C365.04 12.32 365.76 12 366.56 12H425.36C426.24 12 427 12.32 427.64 12.96C428.28 13.52 428.6 14.24 428.6 15.12V29.28C428.6 30.08 428.28 30.8 427.64 31.44C427 32.08 426.24 32.4 425.36 32.4H388.28V44.28H422.72C423.6 44.28 424.36 44.6 425 45.24C425.64 45.8 425.96 46.52 425.96 47.4V60.36C425.96 61.24 425.64 62 425 62.64C424.36 63.2 423.6 63.48 422.72 63.48H388.28V75.6H426.32C427.2 75.6 427.96 75.92 428.6 76.56C429.24 77.2 429.56 77.96 429.56 78.84V92.88C429.56 93.76 429.24 94.52 428.6 95.16C427.96 95.72 427.2 96 426.32 96H366.56ZM444.958 96C444.158 96 443.438 95.72 442.798 95.16C442.158 94.52 441.838 93.76 441.838 92.88V15.12C441.838 14.24 442.158 13.52 442.798 12.96C443.438 12.32 444.158 12 444.958 12H460.918C462.358 12 463.398 12.36 464.038 13.08C464.678 13.72 465.118 14.2 465.358 14.52L490.078 54.24V15.12C490.078 14.24 490.398 13.52 491.038 12.96C491.678 12.32 492.398 12 493.198 12H511.318C512.198 12 512.918 12.32 513.478 12.96C514.118 13.52 514.438 14.24 514.438 15.12V92.88C514.438 93.76 514.118 94.52 513.478 95.16C512.918 95.72 512.198 96 511.318 96H495.478C493.958 96 492.878 95.68 492.238 95.04C491.598 94.32 491.158 93.8 490.918 93.48L466.198 56.04V92.88C466.198 93.76 465.878 94.52 465.238 95.16C464.678 95.72 463.958 96 463.078 96H444.958ZM560.455 97.2C555.655 97.2 551.095 96.6 546.775 95.4C542.455 94.12 538.575 92.28 535.135 89.88C531.775 87.48 529.095 84.52 527.095 81C525.175 77.48 524.175 73.4 524.095 68.76C524.095 68.04 524.335 67.44 524.815 66.96C525.295 66.4 525.895 66.12 526.615 66.12H547.015C548.295 66.12 549.215 66.4 549.775 66.96C550.415 67.52 550.975 68.44 551.455 69.72C552.015 71.32 552.695 72.68 553.495 73.8C554.375 74.84 555.455 75.6 556.735 76.08C558.015 76.56 559.495 76.8 561.175 76.8C564.295 76.8 566.695 75.8 568.375 73.8C570.135 71.8 571.015 68.64 571.015 64.32V33.12H533.695C532.815 33.12 532.055 32.84 531.415 32.28C530.855 31.64 530.575 30.88 530.575 30V15.12C530.575 14.24 530.855 13.52 531.415 12.96C532.055 12.32 532.815 12 533.695 12H594.535C595.415 12 596.135 12.32 596.695 12.96C597.335 13.52 597.655 14.24 597.655 15.12V65.16C597.655 72.28 596.015 78.24 592.735 83.04C589.535 87.76 585.095 91.32 579.415 93.72C573.815 96.04 567.495 97.2 560.455 97.2ZM648 97.2C640.32 97.2 633.64 96 627.96 93.6C622.36 91.2 617.92 87.6 614.64 82.8C611.44 77.92 609.72 71.88 609.48 64.68C609.4 61.32 609.36 57.88 609.36 54.36C609.36 50.76 609.4 47.2 609.48 43.68C609.72 36.56 611.44 30.56 614.64 25.68C617.92 20.8 622.4 17.12 628.08 14.64C633.76 12.08 640.4 10.8 648 10.8C655.52 10.8 662.12 12.08 667.8 14.64C673.48 17.12 677.96 20.8 681.24 25.68C684.52 30.56 686.24 36.56 686.4 43.68C686.56 47.2 686.64 50.76 686.64 54.36C686.64 57.88 686.56 61.32 686.4 64.68C686.16 71.88 684.4 77.92 681.12 82.8C677.92 87.6 673.48 91.2 667.8 93.6C662.2 96 655.6 97.2 648 97.2ZM648 76.8C651.36 76.8 654.12 75.8 656.28 73.8C658.44 71.72 659.56 68.44 659.64 63.96C659.8 60.52 659.88 57.2 659.88 54C659.88 50.72 659.8 47.4 659.64 44.04C659.56 41.08 659 38.64 657.96 36.72C657 34.8 655.64 33.4 653.88 32.52C652.2 31.64 650.24 31.2 648 31.2C645.76 31.2 643.76 31.64 642 32.52C640.24 33.4 638.84 34.8 637.8 36.72C636.84 38.64 636.32 41.08 636.24 44.04C636.16 47.4 636.12 50.72 636.12 54C636.12 57.2 636.16 60.52 636.24 63.96C636.4 68.44 637.52 71.72 639.6 73.8C641.76 75.8 644.56 76.8 648 76.8ZM719.443 96C718.563 96 717.803 95.72 717.163 95.16C716.603 94.52 716.323 93.76 716.323 92.88V68.16L688.963 15.72C688.883 15.56 688.803 15.4 688.723 15.24C688.643 15 688.603 14.8 688.603 14.64C688.603 13.92 688.843 13.32 689.323 12.84C689.883 12.28 690.523 12 691.243 12H709.963C711.403 12 712.483 12.36 713.203 13.08C713.923 13.8 714.403 14.36 714.643 14.76L729.283 42.36L743.923 14.76C744.083 14.36 744.523 13.8 745.243 13.08C745.963 12.36 747.043 12 748.483 12H767.323C767.963 12 768.523 12.28 769.003 12.84C769.563 13.32 769.843 13.92 769.843 14.64C769.843 14.8 769.803 15 769.723 15.24C769.723 15.4 769.683 15.56 769.603 15.72L742.123 68.16V92.88C742.123 93.76 741.803 94.52 741.163 95.16C740.603 95.72 739.883 96 739.003 96H719.443Z" fill="#D40019"/>
<path d="M387.92 206C387.04 206 386.28 205.72 385.64 205.16C385.08 204.52 384.8 203.76 384.8 202.88V178.16L357.44 125.72C357.36 125.56 357.28 125.4 357.2 125.24C357.12 125 357.08 124.8 357.08 124.64C357.08 123.92 357.32 123.32 357.8 122.84C358.36 122.28 359 122 359.72 122H378.44C379.88 122 380.96 122.36 381.68 123.08C382.4 123.8 382.88 124.36 383.12 124.76L397.76 152.36L412.4 124.76C412.56 124.36 413 123.8 413.72 123.08C414.44 122.36 415.52 122 416.96 122H435.8C436.44 122 437 122.28 437.48 122.84C438.04 123.32 438.32 123.92 438.32 124.64C438.32 124.8 438.28 125 438.2 125.24C438.2 125.4 438.16 125.56 438.08 125.72L410.6 178.16V202.88C410.6 203.76 410.28 204.52 409.64 205.16C409.08 205.72 408.36 206 407.48 206H387.92ZM479.133 207.2C471.453 207.2 464.773 206 459.093 203.6C453.493 201.2 449.053 197.6 445.773 192.8C442.573 187.92 440.853 181.88 440.613 174.68C440.533 171.32 440.493 167.88 440.493 164.36C440.493 160.76 440.533 157.2 440.613 153.68C440.853 146.56 442.573 140.56 445.773 135.68C449.053 130.8 453.533 127.12 459.213 124.64C464.893 122.08 471.533 120.8 479.133 120.8C486.653 120.8 493.253 122.08 498.933 124.64C504.613 127.12 509.093 130.8 512.373 135.68C515.653 140.56 517.373 146.56 517.533 153.68C517.693 157.2 517.773 160.76 517.773 164.36C517.773 167.88 517.693 171.32 517.533 174.68C517.293 181.88 515.533 187.92 512.253 192.8C509.053 197.6 504.613 201.2 498.933 203.6C493.333 206 486.733 207.2 479.133 207.2ZM479.133 186.8C482.493 186.8 485.253 185.8 487.413 183.8C489.573 181.72 490.693 178.44 490.773 173.96C490.933 170.52 491.013 167.2 491.013 164C491.013 160.72 490.933 157.4 490.773 154.04C490.693 151.08 490.133 148.64 489.093 146.72C488.133 144.8 486.773 143.4 485.013 142.52C483.333 141.64 481.373 141.2 479.133 141.2C476.893 141.2 474.893 141.64 473.133 142.52C471.373 143.4 469.973 144.8 468.933 146.72C467.973 148.64 467.453 151.08 467.373 154.04C467.293 157.4 467.253 160.72 467.253 164C467.253 167.2 467.293 170.52 467.373 173.96C467.533 178.44 468.653 181.72 470.733 183.8C472.893 185.8 475.693 186.8 479.133 186.8ZM566.921 207.2C559.481 207.2 552.921 206.04 547.241 203.72C541.641 201.4 537.241 197.8 534.041 192.92C530.921 187.96 529.361 181.72 529.361 174.2V125.12C529.361 124.24 529.681 123.52 530.321 122.96C530.961 122.32 531.681 122 532.481 122H552.041C552.921 122 553.641 122.32 554.201 122.96C554.841 123.52 555.161 124.24 555.161 125.12V173.84C555.161 177.92 556.161 181 558.161 183.08C560.161 185.16 563.041 186.2 566.801 186.2C570.561 186.2 573.401 185.16 575.321 183.08C577.321 181 578.321 177.92 578.321 173.84V125.12C578.321 124.24 578.641 123.52 579.281 122.96C579.921 122.32 580.681 122 581.561 122H601.001C601.881 122 602.601 122.32 603.161 122.96C603.801 123.52 604.121 124.24 604.121 125.12V174.2C604.121 181.72 602.561 187.96 599.441 192.92C596.321 197.8 591.961 201.4 586.361 203.72C580.761 206.04 574.281 207.2 566.921 207.2ZM621.56 206C620.76 206 620.04 205.72 619.4 205.16C618.76 204.52 618.44 203.76 618.44 202.88V125.12C618.44 124.24 618.76 123.52 619.4 122.96C620.04 122.32 620.76 122 621.56 122H655.76C666.64 122 675.16 124.48 681.32 129.44C687.56 134.4 690.68 141.32 690.68 150.2C690.68 155.8 689.4 160.56 686.84 164.48C684.28 168.4 680.92 171.48 676.76 173.72L692.36 202.04C692.6 202.52 692.72 202.96 692.72 203.36C692.72 204.08 692.48 204.72 692 205.28C691.52 205.76 690.92 206 690.2 206H669.92C668.4 206 667.24 205.64 666.44 204.92C665.64 204.12 665.12 203.4 664.88 202.76L652.88 178.04H644.24V202.88C644.24 203.76 643.92 204.52 643.28 205.16C642.72 205.72 642 206 641.12 206H621.56ZM644.24 158.24H655.64C658.44 158.24 660.52 157.48 661.88 155.96C663.24 154.36 663.92 152.4 663.92 150.08C663.92 147.68 663.24 145.64 661.88 143.96C660.6 142.28 658.52 141.44 655.64 141.44H644.24V158.24Z" fill="#048102"/>
<path d="M366.56 316C365.76 316 365.04 315.72 364.4 315.16C363.76 314.6 363.44 313.84 363.44 312.88V235.12C363.44 234.24 363.76 233.52 364.4 232.96C365.04 232.32 365.76 232 366.56 232H386.12C387 232 387.72 232.32 388.28 232.96C388.92 233.52 389.24 234.24 389.24 235.12V262.24H413.72V235.12C413.72 234.24 414 233.52 414.56 232.96C415.2 232.32 415.96 232 416.84 232H436.4C437.28 232 438 232.32 438.56 232.96C439.2 233.52 439.52 234.24 439.52 235.12V312.88C439.52 313.76 439.2 314.52 438.56 315.16C438 315.72 437.28 316 436.4 316H416.84C415.96 316 415.2 315.72 414.56 315.16C414 314.52 413.72 313.76 413.72 312.88V285.04H389.24V312.88C389.24 313.76 388.92 314.52 388.28 315.16C387.72 315.72 387 316 386.12 316H366.56ZM490.735 317.2C483.055 317.2 476.375 316 470.695 313.6C465.095 311.2 460.655 307.6 457.375 302.8C454.175 297.92 452.455 291.88 452.215 284.68C452.135 281.32 452.095 277.88 452.095 274.36C452.095 270.76 452.135 267.2 452.215 263.68C452.455 256.56 454.175 250.56 457.375 245.68C460.655 240.8 465.135 237.12 470.815 234.64C476.495 232.08 483.135 230.8 490.735 230.8C498.255 230.8 504.855 232.08 510.535 234.64C516.215 237.12 520.695 240.8 523.975 245.68C527.255 250.56 528.975 256.56 529.135 263.68C529.295 267.2 529.375 270.76 529.375 274.36C529.375 277.88 529.295 281.32 529.135 284.68C528.895 291.88 527.135 297.92 523.855 302.8C520.655 307.6 516.215 311.2 510.535 313.6C504.935 316 498.335 317.2 490.735 317.2ZM490.735 296.8C494.095 296.8 496.855 295.8 499.015 293.8C501.175 291.72 502.295 288.44 502.375 283.96C502.535 280.52 502.615 277.2 502.615 274C502.615 270.72 502.535 267.4 502.375 264.04C502.295 261.08 501.735 258.64 500.695 256.72C499.735 254.8 498.375 253.4 496.615 252.52C494.935 251.64 492.975 251.2 490.735 251.2C488.495 251.2 486.495 251.64 484.735 252.52C482.975 253.4 481.575 254.8 480.535 256.72C479.575 258.64 479.055 261.08 478.975 264.04C478.895 267.4 478.855 270.72 478.855 274C478.855 277.2 478.895 280.52 478.975 283.96C479.135 288.44 480.255 291.72 482.335 293.8C484.495 295.8 487.295 296.8 490.735 296.8ZM544.802 316C544.002 316 543.282 315.72 542.642 315.16C542.002 314.52 541.682 313.76 541.682 312.88V235.12C541.682 234.24 542.002 233.52 542.642 232.96C543.282 232.32 544.002 232 544.802 232H564.722C565.602 232 566.362 232.32 567.002 232.96C567.642 233.52 567.962 234.24 567.962 235.12V294.64H602.642C603.522 294.64 604.282 294.96 604.922 295.6C605.562 296.16 605.882 296.88 605.882 297.76V312.88C605.882 313.76 605.562 314.52 604.922 315.16C604.282 315.72 603.522 316 602.642 316H544.802ZM618.162 316C617.362 316 616.642 315.72 616.002 315.16C615.362 314.52 615.042 313.76 615.042 312.88V235.12C615.042 234.24 615.362 233.52 616.002 232.96C616.642 232.32 617.362 232 618.162 232H638.082C638.962 232 639.722 232.32 640.362 232.96C641.002 233.52 641.322 234.24 641.322 235.12V294.64H676.002C676.882 294.64 677.642 294.96 678.282 295.6C678.922 296.16 679.242 296.88 679.242 297.76V312.88C679.242 313.76 678.922 314.52 678.282 315.16C677.642 315.72 676.882 316 676.002 316H618.162ZM701.162 316C700.282 316 699.522 315.72 698.882 315.16C698.322 314.52 698.042 313.76 698.042 312.88V288.16L670.682 235.72C670.602 235.56 670.522 235.4 670.442 235.24C670.362 235 670.322 234.8 670.322 234.64C670.322 233.92 670.562 233.32 671.042 232.84C671.602 232.28 672.242 232 672.962 232H691.682C693.122 232 694.202 232.36 694.922 233.08C695.642 233.8 696.122 234.36 696.362 234.76L711.002 262.36L725.642 234.76C725.802 234.36 726.242 233.8 726.962 233.08C727.682 232.36 728.762 232 730.202 232H749.042C749.682 232 750.242 232.28 750.722 232.84C751.282 233.32 751.562 233.92 751.562 234.64C751.562 234.8 751.522 235 751.442 235.24C751.442 235.4 751.402 235.56 751.322 235.72L723.842 288.16V312.88C723.842 313.76 723.522 314.52 722.882 315.16C722.322 315.72 721.602 316 720.722 316H701.162ZM790.313 317.2C781.913 317.2 774.913 316.04 769.313 313.72C763.793 311.32 759.633 308.24 756.833 304.48C754.113 300.64 752.673 296.6 752.513 292.36C752.513 291.64 752.753 291.04 753.233 290.56C753.713 290.08 754.313 289.84 755.033 289.84H774.113C775.233 289.84 776.113 290.04 776.753 290.44C777.393 290.76 778.073 291.24 778.793 291.88C779.513 292.76 780.353 293.6 781.313 294.4C782.273 295.12 783.513 295.72 785.033 296.2C786.553 296.6 788.313 296.8 790.313 296.8C793.993 296.8 796.833 296.32 798.833 295.36C800.833 294.32 801.833 292.92 801.833 291.16C801.833 289.8 801.273 288.68 800.153 287.8C799.113 286.92 797.313 286.12 794.753 285.4C792.193 284.68 788.713 283.92 784.313 283.12C778.153 282.08 772.833 280.56 768.353 278.56C763.873 276.48 760.433 273.72 758.033 270.28C755.713 266.76 754.553 262.44 754.553 257.32C754.553 252.12 755.993 247.52 758.873 243.52C761.833 239.52 765.913 236.4 771.113 234.16C776.393 231.92 782.513 230.8 789.473 230.8C795.233 230.8 800.313 231.56 804.713 233.08C809.193 234.6 812.953 236.6 815.993 239.08C819.033 241.48 821.353 244.08 822.953 246.88C824.553 249.68 825.393 252.36 825.473 254.92C825.473 255.64 825.193 256.28 824.633 256.84C824.153 257.32 823.593 257.56 822.953 257.56H802.913C801.953 257.56 801.113 257.4 800.393 257.08C799.753 256.76 799.153 256.24 798.593 255.52C798.193 254.4 797.193 253.4 795.593 252.52C793.993 251.64 791.953 251.2 789.473 251.2C786.753 251.2 784.673 251.68 783.233 252.64C781.793 253.52 781.073 254.84 781.073 256.6C781.073 257.8 781.513 258.84 782.393 259.72C783.273 260.6 784.833 261.4 787.073 262.12C789.313 262.76 792.433 263.48 796.433 264.28C804.033 265.4 810.153 267 814.793 269.08C819.513 271.16 822.953 273.88 825.113 277.24C827.273 280.6 828.353 284.8 828.353 289.84C828.353 295.52 826.713 300.4 823.433 304.48C820.153 308.56 815.633 311.72 809.873 313.96C804.193 316.12 797.673 317.2 790.313 317.2Z" fill="#D80D65"/>
<line x1="356" y1="356.5" x2="786" y2="356.5" stroke="#C62E08" stroke-width="15"/>
<ellipse cx="18" cy="59.1012" rx="18" ry="18.0309" fill="#D91225"/>
<ellipse cx="288" cy="59.1012" rx="18" ry="18.0309" fill="#D91225"/>
<path d="M152.846 0L166.346 25.5437L194.693 30.4554L174.346 50.5866L178.709 79.7333L152.346 66.1132L126.984 79.7333L131.346 50.5866L111 30.4554L139.846 25.5437L152.846 0Z" fill="#D91225"/>
<path d="M9.5 95.6638L72 135.232L77 286.491L21 292L9.5 95.6638Z" fill="#D91225"/>
<path d="M296.5 95.6638L234 135.232L229 286.491L285 292L296.5 95.6638Z" fill="#D91225"/>
<path d="M153 102.175L91 135.232L95 283.486H210.5L214.5 135.232L153 102.175Z" fill="#D91225"/>
</svg>
