<svg width="55" height="40" viewBox="0 0 55 40" fill="none" xmlns="http://www.w3.org/2000/svg">
<path d="M42.5702 16.7163C41.38 16.717 40.1935 16.8489 39.0319 17.1095C38.0936 20.5888 35.9779 23.6304 33.0491 25.7103C32.1754 26.3658 31.2518 26.9512 30.2869 27.4612C31.1791 31.9766 36.3308 35.4477 42.5641 35.4477C42.8269 35.4477 43.0774 35.4477 43.3341 35.4477L46.7319 40V34.9132C51.5474 33.6169 55.0002 30.1643 55.0002 26.0912C55.0002 20.9123 49.433 16.7163 42.5702 16.7163Z" fill="white"/>
<path d="M37.0944 13.9825C37.0944 6.26017 28.7894 0 18.5472 0C8.30499 0 0 6.26017 0 13.9825C0 20.0338 5.09666 25.182 12.2222 27.1294L10.0833 33.0271L17.8322 27.9772H18.5472C28.7894 27.9772 37.0944 21.7048 37.0944 13.9825ZM19.9833 20.8263H17.2455V18.1477H19.9833V20.8263ZM22.6111 13.0855C22.2261 13.5678 21.7779 13.9956 21.2789 14.3572L20.6311 14.861C20.3032 15.1016 20.0577 15.4386 19.9283 15.8255C19.8325 16.1819 19.7852 16.5498 19.7878 16.919H17.3128C17.3029 16.1936 17.4018 15.4708 17.6061 14.775C17.896 14.2264 18.3157 13.758 18.8283 13.4111L19.4944 12.8889C19.6997 12.739 19.8793 12.5564 20.0261 12.3483C20.2654 12.0276 20.3941 11.6372 20.3928 11.2364C20.3959 10.7802 20.2547 10.3348 19.9894 9.96466C19.8073 9.7542 19.5769 9.59159 19.3181 9.49095C19.0593 9.39032 18.78 9.3547 18.5044 9.38718C18.2139 9.359 17.9212 9.40969 17.6567 9.53395C17.3923 9.65821 17.1659 9.8515 17.0011 10.0937C16.7178 10.5307 16.5651 11.0403 16.5611 11.562H13.9089C13.9822 9.81722 14.5933 8.58853 15.7422 7.87589C16.5397 7.38799 17.4614 7.14459 18.3944 7.17554C19.6157 7.12953 20.8194 7.47835 21.8289 8.17078C22.2834 8.50732 22.6468 8.95296 22.8859 9.46699C23.125 9.98102 23.2322 10.5471 23.1978 11.1135C23.2143 11.8166 23.0089 12.507 22.6111 13.0855Z" fill="white"/>
</svg>
