<svg width="55" height="16" viewBox="0 0 55 16" fill="none" xmlns="http://www.w3.org/2000/svg">
<path d="M47.7243 1.82407C49.9803 1.82407 51.5963 3.21607 51.5963 5.23207C51.5963 7.26407 49.9803 8.65607 47.7243 8.65607C45.4683 8.65607 43.8363 7.26407 43.8363 5.23207C43.8363 3.21607 45.4683 1.82407 47.7243 1.82407ZM47.7243 2.97607C46.2203 2.97607 45.1323 3.88807 45.1323 5.23207C45.1323 6.57607 46.2203 7.50407 47.7243 7.50407C49.2123 7.50407 50.3003 6.57607 50.3003 5.23207C50.3003 3.88807 49.2123 2.97607 47.7243 2.97607ZM53.4843 0.768066H54.8123V15.2641H53.4843V0.768066ZM43.2923 12.0961L43.1003 10.9921C45.7403 10.9921 49.3883 10.9761 52.5403 10.4801L52.6523 11.4561C49.4043 12.0801 45.8683 12.0961 43.2923 12.0961Z" fill="white"/>
<path d="M28.9414 8.17605H42.0454V9.26406H28.9414V8.17605ZM34.9254 8.84805H36.2534V12.1761H34.9254V8.84805ZM30.6214 1.45605H40.3494V6.54405H30.6214V1.45605ZM39.0374 2.52806H31.9174V5.47205H39.0374V2.52806ZM30.6054 13.8401H40.5894V14.9281H30.6054V13.8401ZM30.6054 10.7841H31.9174V14.2241H30.6054V10.7841Z" fill="white"/>
<path d="M25.7908 0.799805H27.0548V9.56781H25.7908V0.799805ZM23.4868 4.59181H26.2228V5.6958H23.4868V4.59181ZM22.6868 1.07181H23.9508V9.10381H22.6868V1.07181ZM15.5188 2.0478H21.1028V8.2718H15.5188V2.0478ZM19.8548 3.0878H16.7508V7.2478H19.8548V3.0878ZM22.3028 9.93581C25.2788 9.93581 27.1348 10.9118 27.1348 12.5758C27.1348 14.2398 25.2788 15.2158 22.3028 15.2158C19.3268 15.2158 17.4868 14.2398 17.4868 12.5758C17.4868 10.9118 19.3268 9.93581 22.3028 9.93581ZM22.3028 10.9758C20.1268 10.9758 18.7828 11.5678 18.7828 12.5758C18.7828 13.5838 20.1268 14.1758 22.3028 14.1758C24.4788 14.1758 25.8068 13.5838 25.8068 12.5758C25.8068 11.5678 24.4788 10.9758 22.3028 10.9758Z" fill="white"/>
<path d="M10.5759 0.768066H11.9199V15.2481H10.5759V0.768066ZM11.5519 6.64007H14.2239V7.74407H11.5519V6.64007ZM6.87988 2.33607H8.17588C8.17588 6.44807 6.28788 10.1601 1.61588 12.5121L0.879883 11.4881C4.87988 9.45607 6.87988 6.36807 6.87988 2.54407V2.33607ZM1.55188 2.33607H7.56788V3.42407H1.55188V2.33607Z" fill="white"/>
</svg>
