<svg width="205" height="918" viewBox="0 0 205 918" fill="none" xmlns="http://www.w3.org/2000/svg">
<path d="M149.91 41.3516C146.355 41.3516 143.165 41.8984 140.34 42.9922C137.423 43.9948 134.78 45.9088 132.41 48.7344C129.949 51.5599 127.534 55.5247 125.164 60.6289C122.794 65.7331 120.333 72.3411 117.781 80.4531C114.865 89.4766 111.583 98.0443 107.937 106.156C104.292 114.177 100.053 121.286 95.2227 127.484C90.3008 133.591 84.6042 138.422 78.1328 141.977C71.6615 145.44 64.1419 147.172 55.5742 147.172C47.2799 147.172 39.7604 145.349 33.0156 141.703C26.1797 138.057 20.3464 132.953 15.5156 126.391C10.5937 119.828 6.8112 112.081 4.16797 103.148C1.52474 94.125 0.203122 84.2357 0.203122 73.4805C0.203121 58.806 2.84635 46 8.13281 35.0625C13.4193 24.125 20.6654 15.6484 29.8711 9.63281C39.0768 3.52604 49.6042 0.472654 61.4531 0.472654L61.4531 41.2148C55.6198 41.2148 50.5156 42.4453 46.1406 44.9062C41.6745 47.276 38.1654 50.9219 35.6133 55.8437C33.0612 60.6745 31.7852 66.7812 31.7852 74.1641C31.7852 81.2734 32.8789 87.1979 35.0664 91.9375C37.1628 96.6771 40.0339 100.232 43.6797 102.602C47.2344 104.971 51.2448 106.156 55.7109 106.156C59.0833 106.156 62.1367 105.336 64.8711 103.695C67.6055 101.964 70.1575 99.4115 72.5273 96.0391C74.8971 92.6667 77.1302 88.5195 79.2266 83.5977C81.3229 78.6758 83.3737 72.9792 85.3789 66.5078C88.6602 55.6615 92.3516 46.1367 96.4531 37.9336C100.555 29.6393 105.158 22.7122 110.262 17.1523C115.366 11.5924 121.154 7.39973 127.625 4.57421C134.096 1.74869 141.434 0.335931 149.637 0.335931C158.296 0.335931 166.043 2.02213 172.879 5.39452C179.715 8.76692 185.503 13.6432 190.242 20.0234C194.982 26.4036 198.582 34.0143 201.043 42.8555C203.504 51.6966 204.734 61.5859 204.734 72.5234C204.734 82.3672 203.458 92.0742 200.906 101.645C198.263 111.215 194.298 119.919 189.012 127.758C183.725 135.505 176.98 141.703 168.777 146.352C160.574 151 150.867 153.324 139.656 153.324L139.656 112.172C145.854 112.172 151.095 111.215 155.379 109.301C159.663 107.387 163.126 104.698 165.77 101.234C168.413 97.6797 170.327 93.487 171.512 88.6562C172.697 83.7344 173.289 78.3568 173.289 72.5234C173.289 65.4141 172.286 59.5807 170.281 55.0234C168.276 50.375 165.496 46.957 161.941 44.7695C158.387 42.4909 154.376 41.3516 149.91 41.3516Z" fill="white" fill-opacity="0.6"/>
<path d="M2.9375 277.613L93.7187 236.05L2.93749 194.488L2.93749 149.781L129.539 215.269L202 215.269L202 256.831L129.539 256.831L2.9375 322.456L2.9375 277.613Z" fill="white" fill-opacity="0.6"/>
<path d="M170.008 280.631L202 280.631L202 380.846L170.008 380.846L170.008 280.631ZM2.9375 367.584L202 367.584L202 408.6L2.9375 408.6L2.9375 367.584Z" fill="white" fill-opacity="0.6"/>
<path d="M170.008 420.916L202 420.916L202 521.13L170.008 521.13L170.008 420.916ZM2.9375 507.869L202 507.869L202 548.884L2.9375 548.884L2.9375 507.869Z" fill="white" fill-opacity="0.6"/>
<path d="M97.8203 567.216L107.254 567.216C122.384 567.216 135.965 569.266 147.996 573.368C160.027 577.469 170.281 583.257 178.758 590.731C187.143 598.205 193.569 607.137 198.035 617.528C202.501 627.828 204.734 639.266 204.734 651.844C204.734 664.331 202.501 675.77 198.035 686.161C193.569 696.46 187.143 705.393 178.758 712.958C170.281 720.523 160.027 726.402 147.996 730.594C135.965 734.696 122.384 736.747 107.254 736.747L97.8203 736.747C82.599 736.747 69.0182 734.696 57.0781 730.594C45.0469 726.493 34.793 720.705 26.3164 713.231C17.8398 705.666 11.3685 696.734 6.90234 686.434C2.4362 676.044 0.203122 664.605 0.203121 652.118C0.203121 639.54 2.43619 628.101 6.90234 617.802C11.3685 607.411 17.8398 598.479 26.3164 591.005C34.793 583.44 45.0469 577.606 57.0781 573.505C69.0182 569.312 82.599 567.216 97.8203 567.216ZM107.254 608.641L97.5469 608.641C86.974 608.641 77.6771 609.598 69.6562 611.512C61.6354 613.427 54.8906 616.252 49.4219 619.989C43.9531 623.726 39.8516 628.283 37.1172 633.661C34.2917 639.039 32.8789 645.191 32.8789 652.118C32.8789 659.045 34.2917 665.197 37.1172 670.575C39.8516 675.861 43.9531 680.373 49.4219 684.11C54.8906 687.756 61.6354 690.536 69.6562 692.45C77.6771 694.364 86.974 695.321 97.5469 695.321L107.254 695.321C117.736 695.321 127.033 694.364 135.145 692.45C143.165 690.536 149.956 687.71 155.516 683.973C160.984 680.236 165.132 675.679 167.957 670.302C170.783 664.924 172.195 658.772 172.195 651.844C172.195 644.917 170.783 638.765 167.957 633.387C165.132 628.01 160.984 623.498 155.516 619.852C149.956 616.206 143.165 613.427 135.145 611.512C127.033 609.598 117.736 608.641 107.254 608.641Z" fill="white" fill-opacity="0.6"/>
<path d="M84.0117 784.473L116.004 784.473L116.004 888.379L84.0117 888.379L84.0117 784.473ZM2.9375 876.211L202 876.211L202 917.227L2.9375 917.227L2.9375 876.211ZM2.93749 755.215L202 755.215L202 796.094L2.93749 796.094L2.93749 755.215Z" fill="white" fill-opacity="0.6"/>
</svg>
