<svg width="205" height="917" viewBox="0 0 205 917" fill="none" xmlns="http://www.w3.org/2000/svg">
<path d="M54.8242 875.875C58.3789 875.875 61.569 875.328 64.3945 874.234C67.3112 873.232 69.9544 871.318 72.3242 868.492C74.7852 865.667 77.2005 861.702 79.5703 856.598C81.9401 851.493 84.401 844.885 86.9531 836.773C89.8698 827.75 93.151 819.182 96.7969 811.07C100.443 803.049 104.681 795.94 109.512 789.742C114.434 783.635 120.13 778.805 126.602 775.25C133.073 771.786 140.592 770.055 149.16 770.055C157.454 770.055 164.974 771.878 171.719 775.523C178.555 779.169 184.388 784.273 189.219 790.836C194.141 797.398 197.923 805.146 200.566 814.078C203.21 823.102 204.531 832.991 204.531 843.746C204.531 858.421 201.888 871.227 196.602 882.164C191.315 893.102 184.069 901.578 174.863 907.594C165.658 913.701 155.13 916.754 143.281 916.754L143.281 876.012C149.115 876.012 154.219 874.781 158.594 872.32C163.06 869.951 166.569 866.305 169.121 861.383C171.673 856.552 172.949 850.445 172.949 843.062C172.949 835.953 171.855 830.029 169.668 825.289C167.572 820.549 164.701 816.995 161.055 814.625C157.5 812.255 153.49 811.07 149.023 811.07C145.651 811.07 142.598 811.891 139.863 813.531C137.129 815.263 134.577 817.815 132.207 821.187C129.837 824.56 127.604 828.707 125.508 833.629C123.411 838.551 121.361 844.247 119.355 850.719C116.074 861.565 112.383 871.09 108.281 879.293C104.18 887.587 99.5768 894.514 94.4727 900.074C89.3685 905.634 83.5807 909.827 77.1094 912.652C70.638 915.478 63.3008 916.891 55.0976 916.891C46.4388 916.891 38.6914 915.204 31.8555 911.832C25.0195 908.46 19.2318 903.583 14.4922 897.203C9.7526 890.823 6.15234 883.212 3.6914 874.371C1.23046 865.53 -4.01001e-06 855.641 -3.53191e-06 844.703C-3.10163e-06 834.859 1.27604 825.152 3.82812 815.582C6.47135 806.012 10.4362 797.307 15.7227 789.469C21.0091 781.721 27.7539 775.523 35.957 770.875C44.1602 766.227 53.8672 763.902 65.0781 763.902L65.0781 805.055C58.8802 805.055 53.6393 806.012 49.3555 807.926C45.0716 809.84 41.6081 812.529 38.9648 815.992C36.3216 819.547 34.4075 823.74 33.2227 828.57C32.0378 833.492 31.4453 838.87 31.4453 844.703C31.4453 851.812 32.4479 857.646 34.4531 862.203C36.4583 866.852 39.2383 870.27 42.793 872.457C46.3477 874.736 50.3581 875.875 54.8242 875.875Z" fill="#EFE5E8" fill-opacity="0.6"/>
<path d="M201.797 639.614L111.016 681.177L201.797 722.739L201.797 767.446L75.1953 701.958L2.73437 701.958L2.73437 660.395L75.1953 660.396L201.797 594.771L201.797 639.614Z" fill="#EFE5E8" fill-opacity="0.6"/>
<path d="M34.7266 636.595L2.73437 636.595L2.73437 536.38L34.7266 536.38L34.7266 636.595ZM201.797 549.642L2.73437 549.642L2.73438 508.626L201.797 508.626L201.797 549.642Z" fill="#EFE5E8" fill-opacity="0.6"/>
<path d="M34.7266 496.311L2.73437 496.311L2.73437 396.096L34.7266 396.096L34.7266 496.311ZM201.797 409.358L2.73437 409.358L2.73438 368.342L201.797 368.342L201.797 409.358Z" fill="#EFE5E8" fill-opacity="0.6"/>
<path d="M106.914 350.011L97.4805 350.011C82.3503 350.011 68.7695 347.96 56.7383 343.858C44.707 339.757 34.4531 333.969 25.9766 326.495C17.5911 319.021 11.1654 310.089 6.69921 299.698C2.23307 289.399 -4.26101e-06 277.96 -3.7112e-06 265.382C-3.16538e-06 252.895 2.23307 241.456 6.69922 231.065C11.1654 220.766 17.5911 211.834 25.9766 204.269C34.4531 196.703 44.707 190.825 56.7383 186.632C68.7695 182.53 82.3503 180.479 97.4805 180.479L106.914 180.479C122.135 180.479 135.716 182.53 147.656 186.632C159.687 190.733 169.941 196.521 178.418 203.995C186.895 211.56 193.366 220.493 197.832 230.792C202.298 241.183 204.531 252.621 204.531 265.108C204.531 277.687 202.298 289.125 197.832 299.425C193.366 309.815 186.895 318.748 178.418 326.222C169.941 333.787 159.687 339.62 147.656 343.722C135.716 347.914 122.135 350.011 106.914 350.011ZM97.4805 308.585L107.187 308.585C117.76 308.585 127.057 307.628 135.078 305.714C143.099 303.8 149.844 300.974 155.312 297.237C160.781 293.5 164.883 288.943 167.617 283.565C170.443 278.188 171.855 272.035 171.855 265.108C171.855 258.181 170.443 252.029 167.617 246.651C164.883 241.365 160.781 236.853 155.312 233.116C149.844 229.47 143.099 226.69 135.078 224.776C127.057 222.862 117.76 221.905 107.187 221.905L97.4805 221.905C86.9987 221.905 77.7018 222.862 69.5898 224.776C61.569 226.69 54.7786 229.516 49.2187 233.253C43.75 236.99 39.6029 241.547 36.7773 246.925C33.9518 252.302 32.5391 258.455 32.5391 265.382C32.5391 272.309 33.9518 278.461 36.7773 283.839C39.6029 289.216 43.75 293.728 49.2187 297.374C54.7786 301.02 61.569 303.8 69.5898 305.714C77.7018 307.628 86.9987 308.585 97.4805 308.585Z" fill="#EFE5E8" fill-opacity="0.6"/>
<path d="M120.723 132.754L88.7305 132.754L88.7305 28.8477L120.723 28.8477L120.723 132.754ZM201.797 41.0156L2.73437 41.0156L2.73438 -8.7013e-06L201.797 0L201.797 41.0156ZM201.797 162.012L2.73437 162.012L2.73437 121.133L201.797 121.133L201.797 162.012Z" fill="#EFE5E8" fill-opacity="0.6"/>
</svg>
