<svg width="14" height="16" viewBox="0 0 14 16" fill="none" xmlns="http://www.w3.org/2000/svg">
<path fill-rule="evenodd" clip-rule="evenodd" d="M7.12298 4.8796L10.0724 7.61144C10.3042 7.82615 10.3042 8.17428 10.0724 8.38899L7.12298 11.1206L6.28344 10.3431L8.21959 8.54986H0V7.45014H8.21959L6.28344 5.65694L7.12298 4.8796ZM3.16036 3.2816H4.34776V1.79148C4.34776 1.41225 4.68496 1.09973 5.09466 1.09973H12.0662C12.4759 1.09973 12.8131 1.41204 12.8131 1.79148V14.2085C12.8131 14.3992 12.7292 14.5723 12.5944 14.6978L12.5933 14.6967C12.4578 14.8222 12.2711 14.9003 12.0662 14.9003H5.09466C4.88993 14.9003 4.70303 14.8222 4.56754 14.6967L4.56639 14.6978C4.4316 14.5723 4.34776 14.3992 4.34776 14.2085V12.7184H3.16036V14.2085C3.16036 15.0131 3.72801 15.4616 3.72801 15.4743C4.07818 15.7986 4.56199 16 5.09443 16H12.0659C12.5984 16 13.0822 15.7986 13.4324 15.4743C13.4324 15.4616 14 15.0133 14 14.2085V1.79148C14 0.805223 13.1306 0 12.0657 0H5.09466C4.02978 0 3.16036 0.805009 3.16036 1.79148V3.2816Z" fill="#B5121B"/>
</svg>
