<svg width="20" height="16" viewBox="0 0 20 16" fill="none" xmlns="http://www.w3.org/2000/svg">
<path d="M12.7742 8.68264H13.0377C14.8142 8.68264 16.2592 7.22111 16.2592 5.42446V3.2577C16.2592 1.4613 14.8139 0 13.0377 0H12.7742C10.9975 0 9.5522 1.46153 9.5522 3.2577V5.42446C9.5522 7.22111 10.9977 8.68264 12.7742 8.68264ZM10.7215 3.25747C10.7215 2.11331 11.6425 1.18223 12.7742 1.18223H13.0377C14.1694 1.18223 15.0899 2.11355 15.0899 3.25747V5.42423C15.0899 6.56886 14.1692 7.49993 13.0377 7.49993H12.7742C11.6423 7.49993 10.7215 6.56862 10.7215 5.42423V3.25747ZM19.8825 12.2627C19.7386 11.9394 19.5647 11.798 19.3981 11.6802C18.9045 11.3323 16.2842 9.60213 13.0054 9.56689C12.9809 9.56453 12.9554 9.56453 12.9304 9.565C12.8953 9.56405 12.8792 9.565 12.8574 9.56689C9.57746 9.60142 6.95841 11.3323 6.46519 11.6802C6.29961 11.7966 6.12585 11.938 5.98015 12.2632C5.87071 12.5089 5.86205 12.8461 5.86346 12.9736V15.4088C5.86346 15.7354 6.12515 16 6.44812 16H19.4152C19.7382 16 19.9999 15.7354 19.9999 15.4088V12.9797C20.0013 12.8461 19.9926 12.5084 19.8825 12.2627ZM18.8306 14.8175H7.03278V12.9677C7.03208 12.8955 7.04167 12.7714 7.04611 12.7496C7.07043 12.6952 7.07043 12.6952 7.13381 12.6503C7.4072 12.4578 9.89201 10.7671 12.9093 10.7491H12.9535C15.9699 10.7671 18.4561 12.4578 18.7288 12.6498C18.7924 12.695 18.7924 12.695 18.8093 12.7302C18.8207 12.769 18.831 12.8849 18.8306 12.9736V14.8175ZM7.71753 6.54592C7.71753 6.21932 7.45584 5.95468 7.13287 5.95468H4.44343V3.235C4.44343 2.9084 4.18173 2.64377 3.85877 2.64377C3.5358 2.64377 3.27411 2.9084 3.27411 3.235V5.95468H0.584662C0.261695 5.95468 0 6.21932 0 6.54592C0 6.87252 0.261695 7.13715 0.584662 7.13715H3.27411V9.85683C3.27411 10.1834 3.5358 10.4481 3.85877 10.4481C4.18173 10.4481 4.44343 10.1834 4.44343 9.85683V7.13715H7.13287C7.45584 7.13715 7.71753 6.87228 7.71753 6.54592Z" fill="black"/>
</svg>
