<svg width="40" height="40" viewBox="0 0 40 40" fill="none" xmlns="http://www.w3.org/2000/svg">
<path d="M20 40C8.98451 40 0 31.0155 0 20C0 8.98451 8.98451 0 20 0C31.0155 0 40 8.95009 40 20C40 31.0499 31.0155 40 20 40ZM20 2.82272C10.5336 2.82272 2.82272 10.5336 2.82272 20C2.82272 29.4664 10.5336 37.1773 20 37.1773C29.4664 37.1773 37.1773 29.4664 37.1773 20C37.1773 10.5336 29.4664 2.82272 20 2.82272ZM15.3873 29.9828C14.8365 29.432 14.8365 28.537 15.3873 27.9862L23.4768 19.8967L15.3873 11.8072C14.8365 11.2565 14.8365 10.3614 15.3873 9.81067C15.938 9.2599 16.833 9.2599 17.3838 9.81067L26.4716 18.8985C26.747 19.1738 26.8847 19.5181 26.8847 19.8967C26.8847 20.2754 26.747 20.6196 26.4716 20.895L17.3838 29.9828C17.1084 30.2582 16.7298 30.3959 16.3855 30.3959C16.0069 30.3959 15.6627 30.2582 15.3873 29.9828Z" fill="#929292"/>
</svg>
