<svg width="32" height="32" viewBox="0 0 32 32" fill="none" xmlns="http://www.w3.org/2000/svg">
<path d="M31.5 16C31.5 24.5604 24.5604 31.5 16 31.5C7.43959 31.5 0.5 24.5604 0.5 16C0.5 7.43959 7.43959 0.5 16 0.5C24.5604 0.5 31.5 7.43959 31.5 16Z" fill="white" stroke="#B8B8B8"/>
<path fill-rule="evenodd" clip-rule="evenodd" d="M7 11.9698C7 9.22947 9.22947 7 11.9698 7H20.0302C22.7706 7 25 9.22947 25 11.9698V20.0302C25 22.7706 22.7706 25 20.0302 25H11.9698C9.22947 25 7 22.7706 7 20.0302V11.9698ZM12.4262 16C12.4262 17.9706 14.0294 19.5738 16 19.5738C17.9706 19.5738 19.5738 17.9706 19.5738 16C19.5738 14.0294 17.9706 12.4262 16 12.4262C14.0294 12.4262 12.4262 14.0294 12.4262 16ZM11.2679 16C11.2679 13.3907 13.3907 11.2679 16 11.2679C18.6093 11.2679 20.7321 13.3907 20.7321 16C20.7321 18.6093 18.6093 20.7321 16 20.7321C13.3907 20.7321 11.2679 18.6093 11.2679 16ZM21.7643 8.90884C22.4503 8.90884 23.0064 9.46493 23.0064 10.1509C23.0064 10.8369 22.4503 11.393 21.7643 11.393C21.0784 11.393 20.5223 10.8369 20.5223 10.1509C20.5223 9.46493 21.0784 8.90884 21.7643 8.90884Z" fill="#B8B8B8"/>
</svg>
