<svg width="306" height="292" viewBox="0 0 306 292" fill="none" xmlns="http://www.w3.org/2000/svg">
<ellipse cx="18" cy="59.1012" rx="18" ry="18.0309" fill="#D91225"/>
<ellipse cx="288" cy="59.1012" rx="18" ry="18.0309" fill="#D91225"/>
<path d="M152.846 0L166.346 25.5437L194.693 30.4554L174.346 50.5866L178.709 79.7333L152.346 66.1132L126.984 79.7333L131.346 50.5866L111 30.4554L139.846 25.5437L152.846 0Z" fill="#D91225"/>
<path d="M9.5 95.6638L72 135.232L77 286.491L21 292L9.5 95.6638Z" fill="#D91225"/>
<path d="M296.5 95.6638L234 135.232L229 286.491L285 292L296.5 95.6638Z" fill="#D91225"/>
<path d="M153 102.175L91 135.232L95 283.486H210.5L214.5 135.232L153 102.175Z" fill="#D91225"/>
</svg>
